

<svg width="55.741" height="42.661" viewBox="0 0 55.741 42.661" xmlns="http://www.w3.org/2000/svg"><g id="svgGroup" stroke-linecap="round" fill-rule="evenodd" font-size="9pt" stroke="#ffffff" stroke-width="0.25mm" fill="#ffffff" style="stroke:#ffffff;stroke-width:0.25mm;fill:#ffffff"><path d="M 40.681 12.541 L 32.461 12.541 A 11.53 11.53 0 0 0 29.953 9.247 A 10.668 10.668 0 0 0 27.961 7.831 A 12.713 12.713 0 0 0 23.466 6.381 A 16.249 16.249 0 0 0 21.301 6.241 A 15.737 15.737 0 0 0 16.928 6.829 A 13.543 13.543 0 0 0 13.921 8.101 Q 10.681 9.961 8.851 13.381 A 15.368 15.368 0 0 0 7.208 18.529 A 19.83 19.83 0 0 0 7.021 21.301 Q 7.021 25.801 8.851 29.251 Q 10.681 32.701 13.921 34.561 A 14.084 14.084 0 0 0 19.749 36.353 A 17.36 17.36 0 0 0 21.301 36.421 A 16.26 16.26 0 0 0 25.33 35.947 A 11.77 11.77 0 0 0 30.361 33.301 A 12.768 12.768 0 0 0 34.062 27.372 A 17.275 17.275 0 0 0 34.621 24.841 L 18.961 24.841 L 18.961 19.381 L 41.941 19.381 L 41.941 24.721 Q 41.281 29.581 38.491 33.661 Q 35.701 37.741 31.231 40.171 Q 26.761 42.601 21.301 42.601 A 21.876 21.876 0 0 1 12.577 40.867 A 21.16 21.16 0 0 1 10.561 39.871 Q 5.701 37.141 2.851 32.281 A 20.904 20.904 0 0 1 0.045 22.811 A 25.32 25.32 0 0 1 0.001 21.301 A 22.519 22.519 0 0 1 1.059 14.31 A 20.169 20.169 0 0 1 2.851 10.321 Q 5.701 5.461 10.591 2.731 Q 15.481 0.001 21.301 0.001 Q 27.961 0.001 33.151 3.271 Q 38.341 6.541 40.681 12.541 Z M 51.421 42.661 Q 49.561 42.661 48.301 41.401 A 4.228 4.228 0 0 1 47.041 38.339 A 5.451 5.451 0 0 1 47.041 38.281 Q 47.041 36.421 48.301 35.161 A 4.228 4.228 0 0 1 51.363 33.901 A 5.451 5.451 0 0 1 51.421 33.901 Q 53.221 33.901 54.481 35.161 A 4.228 4.228 0 0 1 55.74 38.223 A 5.451 5.451 0 0 1 55.741 38.281 Q 55.741 40.141 54.481 41.401 A 4.16 4.16 0 0 1 51.477 42.661 A 5.107 5.107 0 0 1 51.421 42.661 Z" vector-effect="non-scaling-stroke"/></g></svg>

